<?xml version="1.0" encoding="UTF-8" standalone="no"?>
<!-- Created with Inkscape (http://www.inkscape.org/) -->

<svg
   xmlns:dc="http://purl.org/dc/elements/1.1/"
   xmlns:cc="http://creativecommons.org/ns#"
   xmlns:rdf="http://www.w3.org/1999/02/22-rdf-syntax-ns#"
   xmlns:svg="http://www.w3.org/2000/svg"
   xmlns="http://www.w3.org/2000/svg"
   xmlns:sodipodi="http://sodipodi.sourceforge.net/DTD/sodipodi-0.dtd"
   xmlns:inkscape="http://www.inkscape.org/namespaces/inkscape"
   width="724"
   height="251"
   viewBox="0 0 191.55833 66.410419"
   version="1.1"
   id="svg8"
   inkscape:version="0.92.5 (2060ec1f9f, 2020-04-08)"
   sodipodi:docname="logoalqueria.svg"
   inkscape:export-filename="/home/kokoro/Escritorio/Elkin/logoalqueria.png"
   inkscape:export-xdpi="96"
   inkscape:export-ydpi="96">
  <defs
     id="defs2" />
  <sodipodi:namedview
     id="base"
     pagecolor="#ffffff"
     bordercolor="#666666"
     borderopacity="1.0"
     inkscape:pageopacity="0"
     inkscape:pageshadow="2"
     inkscape:zoom="0.98994949"
     inkscape:cx="189.93755"
     inkscape:cy="136.66589"
     inkscape:document-units="px"
     inkscape:current-layer="layer1"
     showgrid="false"
     inkscape:window-width="1920"
     inkscape:window-height="1023"
     inkscape:window-x="0"
     inkscape:window-y="27"
     inkscape:window-maximized="1"
     inkscape:pagecheckerboard="true"
     borderlayer="false"
     units="px"
     showguides="true"
     inkscape:guide-bbox="true" />
  <metadata
     id="metadata5">
    <rdf:RDF>
      <cc:Work
         rdf:about="">
        <dc:format>image/svg+xml</dc:format>
        <dc:type
           rdf:resource="http://purl.org/dc/dcmitype/StillImage" />
        <dc:title></dc:title>
      </cc:Work>
    </rdf:RDF>
  </metadata>
  <g
     inkscape:label="Capa 1"
     inkscape:groupmode="layer"
     id="layer1"
     transform="translate(0,-230.58957)">
    <path
       style="fill:#ffffff;fill-opacity:1;stroke-width:0.7616502"
       d="m 0.49804688,127.44141 c -0.33203125,82.37239 -0.16601563,41.1862 0,0 z M 168.02148,30.197266 c -3.63806,0 -7.20117,3.39564 -7.20117,6.863281 0,5.777045 7.7682,9.057523 11.82227,4.992187 4.26133,-4.273096 1.30604,-11.855468 -4.6211,-11.855468 z m -23.76562,7.128906 c -0.40704,-0.02463 -0.85102,0.04388 -1.31055,0.220703 -1.37928,0.530721 -1.52179,3.808431 -0.18945,4.347656 0.52293,0.211276 1.00775,0.412204 1.07812,0.445313 0.0704,0.03402 0.67034,-0.147755 1.33204,-0.402344 0.66172,-0.25474 1.20312,-1.248052 1.20312,-2.207031 0,-1.409528 -0.89216,-2.330403 -2.11328,-2.404297 z m 64.87305,3.929687 c -1.58163,0 -2.35175,0.416234 -2.53516,1.371094 -0.36627,1.907225 1.31938,3.703767 3.21875,3.431641 1.20671,-0.172725 1.58594,-0.776665 1.58594,-2.515625 0,-2.031572 -0.25288,-2.28711 -2.26953,-2.28711 z M 115.51367,44.75 c -1.77298,-0.112872 -3.35212,0.564827 -4.82422,2.041016 -1.90557,1.910815 -2.13967,2.768258 -2.57617,9.43164 -0.82006,12.518514 -4.48881,19.53617 -13.503905,25.832032 -12.725979,8.887332 -21.502125,21.344892 -25.037109,35.539062 -0.941749,3.78157 -3.495337,5.35729 -6.47461,3.99609 -2.774109,-1.2675 -2.973666,-2.94319 -1.486328,-12.45312 1.549576,-9.90807 1.028564,-12.476441 -3.03125,-14.958986 -4.575934,-2.798135 -9.938424,-1.215444 -12.220703,3.607422 -1.663124,3.514474 -1.27829,11.595914 0.740234,15.552734 0.747277,1.46487 3.79904,5.23666 6.783203,8.38281 11.218232,11.82724 11.508314,18.12545 1.31836,28.67188 -6.148105,6.36321 -8.058045,10.81577 -8.027344,18.7168 0.03704,9.52195 6.172974,18.47553 15.091797,22.02148 5.856552,2.32842 14.659985,1.80999 20.148437,-1.18555 2.255169,-1.2308 5.50302,-3.88759 7.216797,-5.90234 8.233006,-9.67907 14.809391,-9.69667 24.888671,-0.0684 3.27885,3.13198 7.15533,6.19384 8.61328,6.80469 7.64125,3.2016 17.59815,-0.9661 21.94531,-9.18555 2.12558,-4.01892 2.22566,-11.73363 0.20508,-15.87891 -3.4667,-7.11163 -8.1134,-9.77037 -18.31054,-10.47461 -5.30292,-0.36623 -9.10193,-1.10545 -12.54883,-2.4414 -2.71912,-1.05389 -6.39641,-2.31208 -8.17188,-2.79688 -4.22942,-1.15476 -5.51953,-3.6276 -5.51953,-10.58593 0,-7.62403 0.96001,-9.73716 5.6211,-12.375 4.85871,-2.74972 7.95149,-5.92227 11.41015,-11.70313 2.77632,-4.64035 4.02512,-9.74124 3.19531,-13.05664 -0.26388,-1.05471 -2.48002,-4.129846 -4.92382,-6.833984 -4.55748,-5.042911 -6.93555,-9.045217 -6.93555,-11.671875 0,-2.047635 3.07081,-6.438548 5.34766,-7.646485 3.14678,-1.66953 8.70069,-0.750071 12.12304,2.007813 3.48658,2.809701 3.82617,2.891913 3.82617,0.910156 0,-4.204044 3.19943,-6.916958 6.80469,-5.769531 1.12243,0.357543 2.31206,-0.10557 4.04688,-1.574219 3.83078,-3.242835 8.08769,-4.860387 12.83984,-4.878906 3.6243,-0.01512 4.88697,0.380559 8.0625,2.523437 3.63571,2.453443 3.82159,2.495272 5.39844,1.214844 2.99917,-2.435301 6.44954,-0.03073 7.42383,5.179688 0.54113,2.892396 1.73733,3.177921 3.79101,0.902343 3.07448,-3.406677 8.41512,-4.747203 11.76172,-2.951172 1.74859,0.938344 3.75977,4.605793 3.75977,6.853516 0,0.886677 -0.82905,3.431658 -1.84375,5.65625 -2.73565,5.997316 -3.68657,10.118539 -3.70703,16.070315 -0.0355,10.34335 4.64426,14.87109 15.36718,14.87109 17.54385,0 30.43239,-21.214562 24.5,-40.328124 -3.55119,-11.441726 -11.97194,-19.608205 -23.25586,-22.554687 -6.07394,-1.586041 -9.93935,-1.492188 -18.14453,0.439453 -9.71954,2.288277 -17.7107,1.764176 -26.00195,-1.703125 -5.49638,-2.298595 -6.81897,-2.545808 -13.68945,-2.566406 -6.9912,-0.0189 -8.01853,0.172862 -12.70313,2.398437 -5.44933,2.58875 -11.07796,7.623483 -13.1875,11.796875 -0.71198,1.408479 -1.81905,3.162311 -2.46094,3.896485 -1.33998,1.532447 -4.75922,1.76789 -6.10351,0.419921 -1.95945,-1.964938 -0.92432,-4.472635 4.03125,-9.763671 3.78398,-4.040202 4.94336,-5.808517 4.94336,-7.535157 0,-3.2976 -0.68456,-4.589462 -3.09571,-5.839843 -1.22223,-0.633785 -2.35613,-0.986965 -3.41992,-1.054688 z M 85.292969,61.466797 c -5.267849,0 -7.787443,6.524308 -3.990235,10.332031 2.04635,2.052057 3.907413,2.328103 6.792969,1.009766 5.620399,-2.567962 3.452195,-11.341797 -2.802734,-11.341797 z M 617.18555,78.292969 c -2.06203,0.01976 -4.27438,0.522436 -6.47266,1.558593 -7.0597,3.327686 -11.09918,10.381315 -11.63867,20.322268 -0.38117,7.02361 0.006,7.47705 4.03125,4.72461 4.10918,-2.80804 9.0383,-5.01686 14.29687,-6.406252 8.34592,-2.205128 11.69838,-7.090108 9.48633,-13.820313 -1.3557,-4.124636 -5.16666,-6.422388 -9.70312,-6.378906 z m -347.88282,3.767578 c -1.20525,0 -2.39003,0.664425 -3.06445,1.716797 -1.94283,3.03171 -49.13476,104.937886 -49.13476,106.101566 0,1.66571 1.12298,1.88514 9.98437,1.95117 5.91543,0.0438 8.31228,-0.21572 8.93555,-0.96875 0.46843,-0.56602 2.40165,-4.58425 4.29687,-8.92969 1.89523,-4.34544 3.86569,-8.16838 4.37696,-8.49414 0.51129,-0.32542 8.67294,-0.59713 18.13867,-0.60352 14.59506,-0.008 17.35934,0.16762 18.18554,1.16602 0.53587,0.64743 1.59377,4.46102 2.35157,8.47461 0.75779,4.01363 1.77179,7.77488 2.2539,8.35742 1.31142,1.58453 17.84586,1.51986 18.45508,-0.0723 0.68939,-1.80152 -20.73831,-101.230168 -22.1582,-102.818364 -1.69837,-1.899628 -10.24253,-5.880859 -12.6211,-5.880859 z M 74.375,85.873047 c -1.514245,0 -2.13184,2.09471 -1.015625,3.443359 1.160198,1.401865 1.135964,1.40157 2.625,-0.0918 C 76.927446,88.278934 77.00558,87.758413 76.326172,86.9375 75.842188,86.352694 74.964395,85.873047 74.375,85.873047 Z m 242.41211,16.017573 c -0.83237,0 -1.86772,0.66514 -2.30078,1.47657 -0.85334,1.59885 -1.13776,83.69937 -0.30078,86.83203 0.45078,1.68741 0.70538,1.73496 8.16601,1.52539 l 7.70117,-0.21484 0.19727,-41.10157 c 0.14891,-31.11473 -0.0264,-41.36739 -0.7168,-42.20312 -1.27574,-1.54148 -10.91053,-6.31446 -12.74609,-6.31446 z m 343.36328,4.2168 c -9.69834,0 -12.58907,0.60468 -24.10937,5.04688 -7.33626,2.82882 -7.68516,3.67742 -4.29493,10.44531 3.06271,6.11414 4.01901,6.41572 11.1543,3.51758 7.64867,-3.10666 12.13361,-4.13961 18.01172,-4.14649 6.13194,-0.008 9.35238,1.49424 11.77344,5.48633 2.03569,3.35671 2.81253,8.81432 1.44336,10.14649 -0.57589,0.56031 -5.49726,1.75778 -10.93555,2.6621 -16.72936,2.78196 -26.14372,6.65385 -31.9668,13.14844 -4.40712,4.91539 -6.06787,9.91839 -6.01953,18.1211 0.0476,8.03512 2.021,13.04119 6.93359,17.58203 3.7493,3.46556 7.27298,5.18648 12.41797,6.0625 4.91452,0.83678 4.63059,0.83889 9.53321,-0.0703 5.46916,-1.01383 9.48712,-2.9637 14.18164,-6.87891 5.09643,-4.2505 6.54504,-3.94228 7.4375,1.58203 l 0.43554,2.69727 7.72461,0.21679 c 9.0127,0.25285 9.03429,0.23294 7.83985,-7.08203 -0.41095,-2.51675 -0.74954,-16.08666 -0.75196,-30.15625 -0.008,-28.08642 -0.46047,-31.97836 -4.41601,-37.70117 -5.36115,-7.75642 -12.58736,-10.67969 -26.39258,-10.67969 z m -390.16797,12.18164 c 1.36131,0 1.82692,1.72805 4.90625,18.19141 3.32164,17.75898 3.36882,18.21549 1.94727,19.25781 -1.92068,1.40833 -21.68963,1.53898 -23.07227,0.15234 -0.50201,-0.50335 -0.8862,-1.44746 -0.85547,-2.09765 0.0306,-0.65023 3.54602,-8.90525 7.8125,-18.34375 6.3128,-13.96528 8.03765,-17.16016 9.26172,-17.16016 z m 342.38086,0.48047 c -1.34819,0.01 -3.49745,0.5703 -6.9668,1.68359 -3.90988,1.25488 -5.5665,2.20246 -6.26367,3.58399 -1.23942,2.45613 -1.39717,64.10457 -0.16992,66.4043 0.7265,1.36119 1.4961,1.48248 8.17773,1.28515 l 7.375,-0.21875 0.21094,-34.70117 c 0.11603,-19.08673 0.0225,-35.4761 -0.20508,-36.41992 -0.26309,-1.08614 -0.81,-1.62703 -2.1582,-1.61719 z m -26.0039,6.0918 c -2.59992,-0.0321 -7.65224,2.02574 -10.31836,4.27539 -1.25685,1.0605 -2.99625,3.34421 -3.86524,5.07422 -2.32637,4.632 -2.92181,5.23409 -4.1582,4.20508 -0.61947,-0.51549 -1.03906,-2.36813 -1.03906,-4.58399 0,-3.61126 -0.0656,-3.7207 -2.24414,-3.7207 -3.09189,0 -10.10223,1.53844 -11.25782,2.4707 -0.73024,0.58912 -0.94922,7.43698 -0.94922,29.5293 0,15.81925 0.22709,28.98992 0.50586,29.26953 0.27893,0.27968 3.53854,0.50976 7.24414,0.50976 6.53235,0 6.7613,-0.0603 7.48047,-1.95703 0.40796,-1.07599 0.74703,-9.39952 0.75391,-18.49609 0.0113,-15.7307 0.0957,-16.68618 1.72266,-19.56641 2.17874,-3.85746 5.584,-6.14289 12.11718,-8.13281 3.15961,-0.96238 5.49613,-2.14933 5.9668,-3.03125 0.42554,-0.79733 0.67495,-4.62344 0.55469,-8.50195 -0.21014,-6.7731 -0.28929,-7.06209 -2.02735,-7.3086 -0.1501,-0.0213 -0.313,-0.033 -0.48632,-0.0352 z m -194.9336,2.37695 c -0.38116,0.007 -0.65537,0.048 -0.78906,0.13086 -0.38759,0.24038 -0.92549,1.61629 -1.19531,3.05859 -0.26986,1.44231 -0.88586,2.75448 -1.36914,2.91602 -0.48325,0.16139 -3.2254,-0.91292 -6.09375,-2.38867 -4.61739,-2.37562 -6.0192,-2.71772 -12.21875,-2.98047 -9.23717,-0.3916 -14.06152,1.31247 -19.14454,6.76172 -4.11401,4.41033 -6.13896,8.58755 -7.66211,15.79492 -3.08855,14.61445 0.62101,29.59029 9.30274,37.54687 7.33584,6.72314 17.71226,8.29026 27.88086,4.21094 2.82327,-1.13265 5.6293,-1.86834 6.23633,-1.63476 0.91083,0.35074 1.10351,2.95264 1.10351,14.89062 0,7.95617 0.33994,15.35934 0.75391,16.45117 0.74502,1.96502 0.82298,1.98284 7.79492,1.76563 l 7.04492,-0.21875 0.19531,-46.43945 c 0.12662,-29.99343 -0.0713,-46.76458 -0.56054,-47.35547 -0.75603,-0.91349 -8.61114,-2.55718 -11.2793,-2.50977 z m 27.83203,5.17188 c -1.26965,-0.008 -2.36744,0.55971 -2.85156,1.46679 -1.0388,1.94638 -1.02335,32.44382 0.0195,38.94922 2.78007,17.34146 14.62333,25.17787 30.43555,20.14063 v -0.002 c 1.92718,-0.61394 4.6233,-2.29292 6.04297,-3.76172 3.30561,-3.41994 5.13342,-3.47845 5.45117,-0.17382 l 0.23828,2.48047 6.39844,0.22265 c 4.60664,0.16063 6.57627,-0.0515 7.02539,-0.76172 0.34318,-0.5424 0.62834,-12.57996 0.63476,-26.74804 l 0.0117,-25.75977 -1.95117,-0.74414 c -2.48719,-0.94821 -8.79158,-0.95895 -11.25391,-0.0176 l -1.89453,0.72071 -0.24609,15.48632 c -0.27817,17.46153 -1.1035,20.79471 -6.01367,24.30078 -3.7954,2.71008 -10.80976,2.99446 -14.38867,0.58399 -5.1261,-3.45252 -5.65848,-5.68349 -6.08594,-25.54688 -0.20939,-9.71943 -0.60063,-17.89217 -0.8711,-18.16211 -0.7593,-0.75768 -8.38715,-2.66373 -10.70117,-2.67382 z m -371.205076,1.58203 c -0.910652,0.12444 -1.721879,0.74007 -2.210937,1.8164 -0.654622,1.44072 -0.629024,2.1587 0.109375,3.05079 1.350418,1.63169 4.374571,1.45595 5.316406,-0.3086 1.018303,-1.90794 1.005832,-2.00981 -0.408203,-3.42773 -0.885995,-0.88846 -1.895988,-1.2553 -2.806641,-1.13086 z M 514.87695,135.875 c -9.81781,-0.051 -15.315,1.34043 -20.27343,5.13281 -7.89491,6.03836 -10.94017,13.14113 -10.86133,25.33203 0.0575,8.9014 1.72436,14.19121 6.07422,19.28711 6.87171,8.05036 22.21207,11.08822 36.80078,7.28711 4.86247,-1.2669 11.37697,-4.66608 12.52148,-6.5332 0.65549,-1.06934 0.24069,-1.89442 -2.21679,-4.41797 -3.76079,-3.86215 -5.48401,-4.32249 -8.8086,-2.35547 -4.06942,2.40771 -11.85397,4.13201 -16.48828,3.65235 -6.36922,-0.65915 -11.86355,-4.4833 -13.35352,-9.29297 -1.06654,-3.44274 -0.21071,-3.64275 21.41211,-5.00391 11.28393,-0.71032 20.94141,-1.55497 21.46094,-1.87695 1.27151,-0.788 0.48013,-11.68113 -1.20312,-16.56836 -1.83319,-5.32248 -7.08922,-10.80304 -12.35743,-12.88477 -3.53461,-1.39672 -5.89507,-1.72251 -12.70703,-1.75781 z m -143.00586,6.43945 c 10.52074,0 15.75614,6.03665 15.875,18.30469 0.065,6.71169 -1.51366,11.95888 -4.67187,15.52539 -3.14661,3.55344 -9.65939,5.05541 -15.08203,3.47852 -3.26121,-0.9484 -8.35604,-6.70641 -9.50196,-10.73633 -1.34502,-4.73042 -1.12961,-14.11233 0.40821,-17.79102 2.54993,-6.09974 6.51046,-8.78125 12.97265,-8.78125 z m 142.00196,4.09961 c 3.15036,-0.0788 6.17477,0.4542 8.15039,1.6211 2.76786,1.63483 4.98841,4.33083 5.74609,6.97461 0.87012,3.03601 -1.08001,3.83223 -10.74805,4.38476 -4.94415,0.28233 -10.87304,0.70267 -13.17382,0.93359 -2.88439,0.28952 -4.47729,0.11486 -5.13282,-0.56054 -2.60201,-2.67972 0.5379,-8.35702 6.25391,-11.30664 2.47714,-1.2783 5.75393,-1.96809 8.9043,-2.04688 z m 156.12304,5.81446 c 5.09859,0 6.1047,1.05543 5.41407,5.67382 -1.19388,7.98358 -7.92337,16.95551 -15.25977,20.34571 -4.12876,1.90798 -10.67579,1.88201 -13.84375,-0.0547 v -0.002 c -5.21004,-3.18558 -6.32087,-10.98466 -2.31445,-16.25196 3.93577,-5.17432 16.08351,-9.71093 26.0039,-9.71093 z m -568.24023,35.84765 c -2.106634,0 -4.826172,2.48274 -4.826172,4.40625 0,0.74566 0.532388,2.11845 1.183593,3.05078 1.401184,2.00603 5.707289,2.33488 7.185549,0.54883 2.32531,-2.80962 0.0252,-8.00586 -3.54297,-8.00586 z"
       transform="matrix(0.26458334,0,0,0.26458334,0,230.58957)"
       id="path35"
       inkscape:connector-curvature="0"
       sodipodi:nodetypes="ccsscssccccsssccssscscccccscccccccccccsccsccccsccsccccccscsccscsccccccccscssccsscscccsscsccccccccccsscccssccccccssccscccccccscccccccssscccccsscccccscsccccsscscsccccccccccccsccccccsccccccccccccccccccccccsccccsccccscccccccsccsccccscccccssccccccsscccccsssccs" />
  </g>
</svg>
